<?xml version="1.0" encoding="utf-8"?>
<!-- Generator: Adobe Illustrator 25.2.1, SVG Export Plug-In . SVG Version: 6.00 Build 0)  -->
<svg version="1.1" id="Calque_1" xmlns="http://www.w3.org/2000/svg" xmlns:xlink="http://www.w3.org/1999/xlink" x="0px" y="0px"
	 viewBox="0 0 474.9 474.9" style="enable-background:new 0 0 474.9 474.9;" xml:space="preserve">
<style type="text/css">
	.st0{fill:#657453;}
</style>
<path class="st0" d="M469.3,230.2l-11.9-3.1c-2.5-54.9-25.1-106.2-64.3-145.4C362.9,51.4,324.8,30.8,283,22c-4.1-0.9-8,1.7-8.9,5.8
	c-0.9,4.1,1.7,8,5.8,8.9c38.9,8.2,74.4,27.4,102.6,55.7c35.4,35.4,56.2,81.4,59.6,130.8l-27.1-7c-3.2-27.1-12.8-53.4-27.7-76.3
	c-2.3-3.5-6.9-4.4-10.4-2.2c-3.5,2.3-4.4,6.9-2.2,10.4c12.6,19.3,21,41.3,24.5,64l-66.3-17.2l38.6-81.7c1.4-2.9,0.8-6.3-1.5-8.5
	c-2.2-2.2-5.6-2.8-8.5-1.5L280,141.8l-17.2-66.3c22.4,3.5,44.1,11.7,63.2,24c1.3,0.8,2.7,1.2,4.1,1.2c2.5,0,4.9-1.2,6.3-3.4
	c2.2-3.5,1.2-8.1-2.2-10.4c-22.7-14.6-48.6-23.9-75.4-27.1L244.7,5.6c-0.9-3.3-3.8-5.6-7.3-5.6s-6.4,2.3-7.3,5.6l-14.1,54.2
	c-37.9,4.5-72.2,20.9-99,45.2l-4-1.9c-2.9-1.4-6.3-0.8-8.5,1.5c-2.2,2.2-2.8,5.6-1.5,8.5l1.9,4c-24.4,26.8-40.7,61.1-45.2,99l-27,7
	c3.3-47.7,23.1-94.4,59.5-130.8c27.9-27.9,63-47.1,101.4-55.4c4-0.9,6.6-4.9,5.7-8.9c-0.9-4-4.9-6.6-8.9-5.7
	c-41.2,8.9-78.9,29.5-108.9,59.5C42.6,120.9,20,172.2,17.5,227.1l-11.9,3.1C2.3,231,0,234,0,237.4s2.3,6.4,5.6,7.3l11.9,3.1
	C20,302.7,42.6,354,81.7,393.2c39.1,39.1,90.4,61.7,145.4,64.3l3.1,11.9c0.9,3.3,3.8,5.6,7.3,5.6s6.4-2.3,7.3-5.6l3.1-11.9
	c54.9-2.5,106.2-25.1,145.4-64.3c39.1-39.1,61.7-90.4,64.3-145.4l11.9-3.1c3.3-0.9,5.6-3.8,5.6-7.3S472.6,231,469.3,230.2
	L469.3,230.2z M349.2,349.2l-65.3-30.9l2.6-10L291,291l0,0L349.2,349.2L349.2,349.2z M198.4,287.1l39-39v189.5L198.4,287.1z
	 M125.7,349.2l30.9-65.3l13.7,3.5l13.7,3.5l0,0L125.7,349.2L125.7,349.2z M187.5,170.3l-3.5,13.7l0,0l-58.2-58.2l0,0l65.3,30.9
	L187.5,170.3z M141.8,280L112,343.1c-18.8-22.4-31.8-49.9-36.5-80.3L141.8,280z M194.9,333.1l17.2,66.3
	c-30.4-4.7-57.9-17.6-80.3-36.5L194.9,333.1z M280,333.1l63.1,29.8c-22.4,18.8-49.9,31.8-80.3,36.5L280,333.1z M333.1,280l66.3-17.2
	c-4.7,30.4-17.6,57.9-36.5,80.3L333.1,280z M287.1,276.5l-39-39h189.5L287.1,276.5z M318.3,191l-18.6-4.8l-8.7-2.3l0,0l58.2-58.2
	l0,0L318.3,191z M276.5,187.8l-39,39V37.4L276.5,187.8z M212.1,75.5l-17.2,66.3l-63-29.8C154.3,93.2,181.8,80.2,212.1,75.5z
	 M112,131.9l29.8,63l-66.3,17.2C80.2,181.8,93.2,154.3,112,131.9z M187.8,198.4l39,39H37.4L187.8,198.4z M92.3,382.5
	C56,346.2,36.1,299.4,32.8,251.8l27,7c4.4,36.8,20.3,71.5,45.2,99l-1.9,4c-1.4,2.9-0.8,6.3,1.5,8.5c1.4,1.4,3.4,2.2,5.3,2.2
	c1.1,0,2.2-0.2,3.2-0.7l4-1.9c27.5,25,62.2,40.9,99,45.2l7,27C175.4,438.7,128.7,418.9,92.3,382.5L92.3,382.5z M382.5,382.5
	c-36.4,36.4-83.1,56.2-130.8,59.5l7-27c36.8-4.4,71.5-20.3,99-45.2l4,1.9c1,0.5,2.1,0.7,3.2,0.7c1.9,0,3.9-0.8,5.3-2.2
	c2.2-2.2,2.8-5.6,1.5-8.5l-1.9-4c25-27.5,40.9-62.2,45.2-99l27.1-7C438.8,301.2,417.9,347.2,382.5,382.5L382.5,382.5z"/>
</svg>
